<svg width="205" height="25" viewBox="0 0 205 25" fill="none" xmlns="http://www.w3.org/2000/svg">
<path d="M5.59053 19.288C4.19853 19.288 2.13453 18.88 1.00653 18.304L0.862531 14.344H1.00653C2.06253 17.368 3.71853 18.952 5.95053 18.952C7.84653 18.952 9.52653 17.68 9.52653 15.496C9.52653 13.312 7.79853 12.4 5.78253 11.416L4.55853 10.816C2.95053 10.024 1.22253 8.896 1.22253 6.208C1.22253 3.352 3.28653 1.24 6.23853 1.24C7.55853 1.24 9.40653 1.672 10.5585 2.2V5.32H10.4145C9.33453 2.728 7.91853 1.576 6.09453 1.576C4.15053 1.576 2.90253 2.872 2.90253 4.816C2.90253 6.832 4.43853 7.576 5.90253 8.296L7.12653 8.896C9.21453 9.928 11.2065 11.056 11.2065 14.008C11.2065 17.032 8.95053 19.288 5.59053 19.288ZM19.1177 19.288C15.2537 19.288 13.1177 17.464 13.1177 13.336V4.648C13.1177 2.872 13.0217 1.672 11.3897 1.672V1.528H17.5337V1.672C15.9017 1.672 15.8057 2.872 15.8057 4.648V13.192C15.8057 17.008 16.9817 18.664 19.8377 18.664C22.5257 18.664 24.2537 17.08 24.2537 13.24V6.088C24.2537 3.832 23.8697 1.672 22.2377 1.672V1.528H26.5577V1.672C24.9257 1.672 24.6857 3.832 24.6857 6.088V13.24C24.6857 17.368 22.8137 19.288 19.1177 19.288ZM32.7837 19H26.6397V18.856C28.2717 18.856 28.3677 17.656 28.3677 15.88V4.648C28.3677 2.872 28.2717 1.672 26.6397 1.672V1.528H32.7837V1.672C31.1517 1.672 31.0557 2.872 31.0557 4.648V15.88C31.0557 17.656 31.1517 18.856 32.7837 18.856V19ZM44.5002 19H37.4922V18.856C39.1242 18.856 39.2202 17.656 39.2202 15.88V4.648C39.2202 2.872 39.1242 1.672 37.4922 1.672V1.528H44.6922C50.1162 1.528 53.2842 4.576 53.2842 10.048C53.2842 15.616 49.8042 19 44.5002 19ZM44.6442 18.616C48.7722 18.616 50.3082 15.28 50.3082 10.192C50.3082 5.536 48.7002 1.912 44.4522 1.912H42.8202C42.2442 1.912 41.9082 2.2 41.9082 2.776V17.08C41.9082 18.136 42.4362 18.616 44.6442 18.616ZM68.9938 1.528V1.672C67.3618 1.672 67.2658 2.872 67.2658 4.648V15.88C67.2658 17.656 67.3618 18.856 68.9938 18.856V19H62.8498V18.856C64.4818 18.856 64.5778 17.656 64.5778 15.88V10.168H57.8578V15.88C57.8578 17.656 57.9538 18.856 59.5858 18.856V19H53.4418V18.856C55.0738 18.856 55.1698 17.656 55.1698 15.88V4.648C55.1698 2.872 55.0738 1.672 53.4418 1.672V1.528H59.5858V1.672C57.9538 1.672 57.8578 2.872 57.8578 4.648V9.736H64.5778V4.648C64.5778 2.872 64.4818 1.672 62.8498 1.672V1.528H68.9938ZM76.2561 1.24L81.5361 15.928C82.2321 17.896 82.7121 18.76 83.7201 18.856V19H77.5761V18.856C78.9201 18.76 79.3761 17.848 78.9201 16.576L77.6721 13.048H72.3201L71.8401 14.368C70.8321 17.2 71.0001 18.664 72.6321 18.856V19H68.6001V18.856C69.7521 18.712 70.3521 17.104 71.3841 14.224L76.0641 1.24H76.2561ZM75.0081 5.464L72.5121 12.472H77.4801L75.0081 5.464ZM90.763 19.288C85.771 19.288 82.651 15.64 82.651 10.312C82.651 4.936 86.155 1.24 90.883 1.24C93.499 1.24 95.275 1.864 96.427 2.44V5.704H96.283C94.987 3.016 93.451 1.576 90.835 1.576C87.643 1.576 85.627 5.272 85.627 10.288C85.627 15.16 87.427 18.952 90.859 18.952C92.755 18.952 94.051 18.088 94.051 16.696V14.032C94.051 12.256 93.955 11.32 92.563 11.224V11.08H97.507V11.224C96.787 11.32 96.739 12.256 96.739 14.032V17.56C95.395 18.472 93.259 19.288 90.763 19.288ZM104.241 1.24L109.521 15.928C110.217 17.896 110.697 18.76 111.705 18.856V19H105.561V18.856C106.905 18.76 107.361 17.848 106.905 16.576L105.657 13.048H100.305L99.8254 14.368C98.8174 17.2 98.9854 18.664 100.617 18.856V19H96.5854V18.856C97.7374 18.712 98.3374 17.104 99.3694 14.224L104.049 1.24H104.241ZM102.993 5.464L100.497 12.472H105.465L102.993 5.464ZM123.113 6.136C124.601 6.136 125.465 7.312 125.465 9.52C125.465 13.816 122.225 19.288 117.929 19.288C116.321 19.288 115.145 18.496 115.145 16.672C115.145 16.312 115.193 15.928 115.289 15.496L117.881 3.256C118.217 1.72 117.929 1.144 117.161 0.999999L117.185 0.855999L119.633 0.231998H119.729L117.281 11.848C118.745 8.176 121.121 6.136 123.113 6.136ZM118.289 18.952C121.337 18.952 124.121 14.008 124.121 10C124.121 8.08 123.473 7 122.345 7C120.353 7 117.569 10.48 116.537 15.256C116.465 15.592 116.417 15.904 116.417 16.384C116.417 17.824 116.825 18.952 118.289 18.952ZM133.336 6.424L134.512 6.136C135.232 6.712 135.52 7.672 135.52 8.8C135.52 14.536 129.4 24.616 124.864 24.616C124.12 24.616 123.376 24.352 122.728 23.656L123.304 22.624H123.448C124.024 23.44 124.768 23.752 125.584 23.752C127.48 23.752 129.832 22.096 129.832 17.656C129.832 13.768 128.392 7.336 127.072 7.336C126.664 7.336 126.28 7.96 125.92 9.376L125.8 9.328C126.064 7.096 126.712 6.136 127.48 6.136C129.448 6.136 131.032 12.448 131.032 17.2C131.032 18.232 130.96 19.048 130.792 19.744C132.832 16.96 134.464 13.504 134.464 9.808C134.464 8.344 134.128 7.144 133.336 6.568V6.424ZM144.448 19.288C142.696 19.288 141.088 18.664 139.936 17.776L140.488 14.848H140.632C141.184 17.728 142.912 18.856 144.976 18.856C147.4 18.856 149.104 17.272 149.104 15.088C149.104 13 147.544 11.896 145.984 10.6L145.144 9.904C144.304 9.208 142.744 7.816 142.744 5.704C142.744 3.136 145.192 1.24 148.024 1.24C149.608 1.24 150.952 1.816 152.2 2.68L151.672 5.176H151.528C151.168 3.16 149.512 1.672 147.424 1.672C145.408 1.672 143.92 3.04 143.92 5.056C143.92 7.024 145.336 8.2 146.176 8.896L147.016 9.592C148.672 10.96 150.28 12.28 150.28 14.44C150.28 17.2 147.64 19.288 144.448 19.288ZM162.232 15.592L162.352 15.688C161.152 17.944 159.856 19.288 158.968 19.288C158.104 19.288 157.984 18.472 158.32 17.032L159.784 10.696C160.216 8.824 160.504 7.192 159.136 7.192C156.712 7.192 153.352 12.736 152.032 19H150.832L154.144 3.256C154.456 1.72 154.192 1.144 153.4 0.999999L153.448 0.855999L155.896 0.231998H155.992L152.992 14.44C154.84 9.52 157.6 6.136 159.856 6.136C161.896 6.136 161.536 8.368 160.96 10.864L159.616 16.744C159.472 17.416 159.304 18.088 159.712 18.088C160.072 18.088 160.888 17.416 162.232 15.592ZM175.824 6.424L177.024 6.136C177.72 6.664 178.032 7.576 178.032 8.608C178.032 12.184 174.696 19.288 171.192 19.288C169.368 19.288 169.152 16.888 169.536 14.44C168.528 17.032 166.872 19.288 165.048 19.288C163.08 19.288 162.936 17.008 163.464 14.56L164.688 8.68C164.856 7.936 164.952 7.336 164.592 7.336C164.208 7.336 163.536 8.056 162.576 9.304L162.456 9.208C163.56 7.144 164.64 6.136 165.432 6.136C166.32 6.136 166.224 7.408 165.984 8.392L164.64 14.728C164.256 16.624 164.352 18.376 165.864 18.376C167.88 18.376 169.8 13.216 170.616 9.376L171.192 6.688L172.368 6.376H172.464C171.576 10.072 170.568 13.768 170.568 16.072C170.568 17.488 170.952 18.376 172.008 18.376C174.744 18.376 176.928 12.736 176.928 9.52C176.928 8.344 176.592 7.048 175.824 6.568V6.424ZM187.698 7.84C187.698 10.048 184.482 11.416 179.586 12.952C179.418 13.696 179.322 14.44 179.322 15.208C179.322 17.416 180.138 18.376 181.53 18.376C183.09 18.376 184.794 17.2 186.234 15.424L186.378 15.52C184.674 18.088 182.85 19.288 181.05 19.288C179.274 19.288 178.026 18.112 178.026 15.496C178.026 11.512 180.954 6.136 185.394 6.136C187.05 6.136 187.698 6.856 187.698 7.84ZM185.01 6.472C182.922 6.472 180.594 9.256 179.682 12.52C184.026 11.032 186.354 10.024 186.354 7.912C186.354 7.144 186.042 6.472 185.01 6.472ZM194.931 7.192H190.875L188.955 16.168C188.763 17.08 188.715 18.088 189.459 18.088C190.203 18.088 191.571 16.96 193.131 14.872L193.251 14.968C191.883 17.536 189.843 19.288 188.595 19.288C187.467 19.288 187.371 17.896 187.683 16.456L189.675 7.192H188.403L188.451 7L188.811 6.856C189.795 6.472 190.635 5.56 191.499 3.496H191.643L191.019 6.424H195.387L194.931 7.192ZM204.587 15.592L204.707 15.688C203.507 17.944 202.235 19.288 201.275 19.288C200.315 19.288 200.483 17.992 200.699 17.032L201.443 13.552C199.955 17.248 197.579 19.288 195.587 19.288C194.099 19.288 193.235 18.112 193.235 15.904C193.235 11.608 196.475 6.136 200.747 6.136C201.779 6.136 202.595 6.448 203.051 7.144L204.059 6.28H204.203L201.971 16.744C201.899 17.08 201.707 17.968 202.139 17.968C202.619 17.968 203.651 16.864 204.587 15.592ZM196.355 18.424C198.347 18.424 201.179 14.944 202.163 10.168C202.235 9.832 202.283 9.52 202.283 9.04C202.283 7.6 201.875 6.472 200.411 6.472C197.363 6.472 194.579 11.416 194.579 15.424C194.579 17.344 195.227 18.424 196.355 18.424Z" fill="#8B0000"/>
</svg>
